<?xml version="1.0" encoding="UTF-8" standalone="no"?>
<svg width="731px" height="310px" viewBox="0 0 731 310" version="1.1" xmlns="http://www.w3.org/2000/svg" xmlns:xlink="http://www.w3.org/1999/xlink" xmlns:sketch="http://www.bohemiancoding.com/sketch/ns">
    <!-- Generator: Sketch 3.4.2 (15855) - http://www.bohemiancoding.com/sketch -->
    <title>apigateway</title>
    <desc>Created with Sketch.</desc>
    <defs></defs>
    <g id="Page-1" stroke="none" stroke-width="1" fill="none" fill-rule="evenodd" sketch:type="MSPage">
        <g id="apigateway" sketch:type="MSArtboardGroup">
            <g id="Oval-1-+-λ-+-A" sketch:type="MSLayerGroup" transform="translate(393.000000, 97.000000)">
                <g id="Oval-1-+-λ" fill="#DDCF17" sketch:type="MSShapeGroup">
                    <ellipse id="Oval-1" cx="54.3200172" cy="54.3200172" rx="54.3200172" ry="54.3200172"></ellipse>
                </g>
                <text id="A" sketch:type="MSTextLayer" font-family="Helvetica Neue" font-size="77.9862913" font-weight="bold" fill="#FFFFFF">
                    <tspan x="27.6201448" y="79.2494288">A</tspan>
                </text>
            </g>
            <path d="M143.812357,77.8123572 L285.16251,97.30893" id="Line" stroke="#979797" stroke-linecap="square" stroke-dasharray="3,3" sketch:type="MSShapeGroup"></path>
            <g id="Oval-1-+-λ-+-py" sketch:type="MSLayerGroup" transform="translate(21.000000, 24.000000)">
                <g id="Oval-1-+-λ" sketch:type="MSShapeGroup">
                    <ellipse id="Oval-1" fill="#3E4349" cx="54.3200172" cy="54.3200172" rx="54.3200172" ry="54.3200172"></ellipse>
                    <path d="M74.8054205,73.9147816 C75.201262,73.9147816 75.5847277,73.8900419 75.9558291,73.8405617 C76.3269305,73.7910815 76.7351359,73.6921226 77.1804575,73.5436821 L77.1804575,80.2976937 C76.1908538,80.8419757 75.1888951,81.2378113 74.1745513,81.4852122 C73.1602075,81.7326131 72.1829885,81.8563117 71.2428649,81.8563117 C68.9172962,81.8563117 67.1236663,81.386257 65.8619216,80.4461335 C64.6001769,79.50601 63.697177,78.170065 63.152895,76.4382585 L56.8442028,56.3988833 L56.6215431,56.3988833 L47.9378138,80.817233 L36.6563878,80.817233 L52.0199088,45.3401171 L48.9768925,38.0665661 C48.4820907,36.9285218 47.8264881,36.1987 47.010065,35.8770788 C46.1936419,35.5554576 45.2164229,35.3946494 44.0783786,35.3946494 C42.8908542,35.3946494 41.6786078,35.5678275 40.4416031,35.9141888 L40.4416031,28.0468785 C41.5796474,27.7005172 42.7300445,27.4778597 43.8928289,27.3788994 C45.0556132,27.279939 46.1565309,27.2304595 47.1956148,27.2304595 C48.9274213,27.2304595 50.4118046,27.4160075 51.6488092,27.7871088 C52.8858139,28.1582102 53.9743616,28.7519636 54.9144852,29.5683866 C55.8546087,30.3848097 56.6957593,31.4362479 57.437962,32.7227327 C58.1801648,34.0092176 58.8976168,35.5925598 59.5903394,37.4728068 L72.7272631,72.0592839 C73.0241442,72.8509669 73.3333907,73.3581312 73.6550119,73.580792 C73.9766331,73.8034529 74.3600988,73.9147816 74.8054205,73.9147816 L74.8054205,73.9147816 Z" id="λ" fill="#FFFFFF"></path>
                </g>
                <text id="py" sketch:type="MSTextLayer" font-family="Helvetica Neue" font-size="21.1212872" font-weight="bold" fill="#FFFFFF">
                    <tspan x="73.1121481" y="59.9931456">py</tspan>
                </text>
            </g>
            <g id="Oval-1-+-λ-+-js" sketch:type="MSLayerGroup" transform="translate(21.000000, 178.000000)">
                <g id="Oval-1-+-λ" sketch:type="MSShapeGroup">
                    <ellipse id="Oval-1" fill="#3E4349" cx="54.3200172" cy="54.3200172" rx="54.3200172" ry="54.3200172"></ellipse>
                    <path d="M74.8054205,73.9147816 C75.201262,73.9147816 75.5847277,73.8900419 75.9558291,73.8405617 C76.3269305,73.7910815 76.7351359,73.6921226 77.1804575,73.5436821 L77.1804575,80.2976937 C76.1908538,80.8419757 75.1888951,81.2378113 74.1745513,81.4852122 C73.1602075,81.7326131 72.1829885,81.8563117 71.2428649,81.8563117 C68.9172962,81.8563117 67.1236663,81.386257 65.8619216,80.4461335 C64.6001769,79.50601 63.697177,78.170065 63.152895,76.4382585 L56.8442028,56.3988833 L56.6215431,56.3988833 L47.9378138,80.817233 L36.6563878,80.817233 L52.0199088,45.3401171 L48.9768925,38.0665661 C48.4820907,36.9285218 47.8264881,36.1987 47.010065,35.8770788 C46.1936419,35.5554576 45.2164229,35.3946494 44.0783786,35.3946494 C42.8908542,35.3946494 41.6786078,35.5678275 40.4416031,35.9141888 L40.4416031,28.0468785 C41.5796474,27.7005172 42.7300445,27.4778597 43.8928289,27.3788994 C45.0556132,27.279939 46.1565309,27.2304595 47.1956148,27.2304595 C48.9274213,27.2304595 50.4118046,27.4160075 51.6488092,27.7871088 C52.8858139,28.1582102 53.9743616,28.7519636 54.9144852,29.5683866 C55.8546087,30.3848097 56.6957593,31.4362479 57.437962,32.7227327 C58.1801648,34.0092176 58.8976168,35.5925598 59.5903394,37.4728068 L72.7272631,72.0592839 C73.0241442,72.8509669 73.3333907,73.3581312 73.6550119,73.580792 C73.9766331,73.8034529 74.3600988,73.9147816 74.8054205,73.9147816 L74.8054205,73.9147816 Z" id="λ" fill="#FFFFFF"></path>
                </g>
                <text id="js" sketch:type="MSTextLayer" font-family="Helvetica Neue" font-size="21.1212872" font-weight="bold" fill="#FFFFFF">
                    <tspan x="76.3615769" y="59.9931456">js</tspan>
                </text>
            </g>
            <path d="M352.812357,211.30893 L391.805503,191.812357" id="Line" stroke="#979797" stroke-linecap="square" stroke-dasharray="3,3" sketch:type="MSShapeGroup"></path>
            <g id="Oval-1-+-λ-+-A" sketch:type="MSLayerGroup" transform="translate(294.000000, 71.000000)">
                <g id="Oval-1-+-λ" fill="#F6A623" sketch:type="MSShapeGroup">
                    <ellipse id="Oval-1" cx="24.370716" cy="25.075158" rx="24.370716" ry="24.370716"></ellipse>
                </g>
                <text id="R" sketch:type="MSTextLayer" font-family="Helvetica Neue" font-size="29.2448592" font-weight="bold" fill="#FFFFFF">
                    <tspan x="14.6224296" y="35.4988576">R</tspan>
                </text>
            </g>
            <g id="Oval-1-+-λ-+-A" sketch:type="MSLayerGroup" transform="translate(294.000000, 131.000000)">
                <g id="Oval-1-+-λ" fill="#F6A623" sketch:type="MSShapeGroup">
                    <ellipse id="Oval-1" cx="24.370716" cy="25.075158" rx="24.370716" ry="24.370716"></ellipse>
                </g>
                <text id="R" sketch:type="MSTextLayer" font-family="Helvetica Neue" font-size="29.2448592" font-weight="bold" fill="#FFFFFF">
                    <tspan x="14.6224296" y="35.4988576">R</tspan>
                </text>
            </g>
            <g id="Oval-1-+-λ-+-A" sketch:type="MSLayerGroup" transform="translate(294.000000, 191.000000)">
                <g id="Oval-1-+-λ" fill="#F6A623" sketch:type="MSShapeGroup">
                    <ellipse id="Oval-1" cx="24.370716" cy="25.075158" rx="24.370716" ry="24.370716"></ellipse>
                </g>
                <text id="R" sketch:type="MSTextLayer" font-family="Helvetica Neue" font-size="29.2448592" font-weight="bold" fill="#FFFFFF">
                    <tspan x="14.6224296" y="35.4988576">R</tspan>
                </text>
            </g>
            <path d="M352.812357,153.5 L382.057216,153.5" id="Line" stroke="#979797" stroke-linecap="square" stroke-dasharray="3,3" sketch:type="MSShapeGroup"></path>
            <path d="M349.812357,101.812357 L388.805503,124.558359" id="Line" stroke="#979797" stroke-linecap="square" stroke-dasharray="3,3" sketch:type="MSShapeGroup"></path>
            <path d="M143.812357,77.8123572 L285.16251,150.924505" id="Line" stroke="#979797" stroke-linecap="square" stroke-dasharray="3,3" sketch:type="MSShapeGroup"></path>
            <path d="M143.812357,77.8123572 L285.16251,219.16251" id="Line" stroke="#979797" stroke-linecap="square" stroke-dasharray="3,3" sketch:type="MSShapeGroup"></path>
            <path d="M143.812357,233.6865 L286.787225,228.812357" id="Line" stroke="#979797" stroke-linecap="square" stroke-dasharray="3,3" sketch:type="MSShapeGroup"></path>
            <path d="M143.812357,234.299791 L283.537796,162.812357" id="Line" stroke="#979797" stroke-linecap="square" stroke-dasharray="3,3" sketch:type="MSShapeGroup"></path>
            <g id="Group" sketch:type="MSLayerGroup" transform="translate(539.000000, 111.000000)">
                <rect id="Rectangle-1" fill="#F8F8F8" sketch:type="MSShapeGroup" x="0" y="0" width="170.595012" height="90.9840065" rx="8"></rect>
                <g id="Oval-1-+-λ-+-A" transform="translate(15.698927, 12.549518)">
                    <g id="Oval-1-+-λ" fill="#DDCF17" sketch:type="MSShapeGroup">
                        <ellipse id="Oval-1" cx="8.35616051" cy="8.34975732" rx="8.35616051" ry="8.34975732"></ellipse>
                    </g>
                    <text id="A" sketch:type="MSTextLayer" font-family="Helvetica Neue" font-size="11.9875994" font-weight="bold" fill="#FFFFFF">
                        <tspan x="4.24886396" y="12.4994833">A</tspan>
                    </text>
                </g>
                <g id="Oval-1-+-λ-+-A" transform="translate(15.698927, 37.648554)">
                    <g id="Oval-1-+-λ" fill="#F6A623" sketch:type="MSShapeGroup">
                        <ellipse id="Oval-1" cx="8.37276133" cy="8.33049372" rx="8.37276133" ry="8.09646331"></ellipse>
                    </g>
                    <text id="R" sketch:type="MSTextLayer" font-family="Helvetica Neue" font-size="9.71575598" font-weight="bold" fill="#FFFFFF">
                        <tspan x="5.0236568" y="11.1590569">R</tspan>
                    </text>
                </g>
                <g id="Oval-1-+-λ-+-py" transform="translate(15.698927, 62.747591)" sketch:type="MSShapeGroup">
                    <g id="Oval-1-+-λ">
                        <ellipse id="Oval-1" fill="#3E4349" cx="8.35616051" cy="8.34975732" rx="8.35616051" ry="8.34975732"></ellipse>
                        <path d="M11.5074724,11.3617506 C11.5683655,11.3617506 11.6273549,11.3579478 11.6844422,11.350342 C11.7415295,11.3427362 11.8043245,11.3275248 11.8728293,11.3047073 L11.8728293,12.3428948 C11.7205965,12.4265586 11.5664631,12.4874042 11.4104245,12.5254332 C11.2543859,12.5634622 11.1040583,12.5824765 10.9594371,12.5824765 C10.6016901,12.5824765 10.3257723,12.5102224 10.1316755,12.3657121 C9.93757871,12.2212017 9.79866838,12.015848 9.71494035,11.7496448 L8.74446119,8.66930854 L8.71020899,8.66930854 L7.37437297,12.4227553 L5.6389279,12.4227553 L8.00233007,6.96941926 L7.5342166,5.85137128 C7.45810021,5.67643773 7.3572475,5.56425377 7.23165545,5.51481603 C7.1060634,5.46537828 6.95573578,5.44065978 6.78066808,5.44065978 C6.59798874,5.44065978 6.41150637,5.46727971 6.22121539,5.52052035 L6.22121539,4.31120315 C6.39628309,4.2579625 6.57325105,4.22373689 6.75212458,4.20852527 C6.9309981,4.19331366 7.10035453,4.18570797 7.26019896,4.18570797 C7.52660633,4.18570797 7.75495208,4.21422932 7.94524306,4.27127286 C8.13553405,4.32831641 8.3029876,4.41958472 8.44760874,4.54508053 C8.59222989,4.67057634 8.72162582,4.83219731 8.83580041,5.02994828 C8.949975,5.22769925 9.06034211,5.47108141 9.16690506,5.76010206 L11.1877852,11.0765343 C11.233455,11.1982272 11.281027,11.2761855 11.3305027,11.3104117 C11.3799784,11.3446378 11.4389677,11.3617506 11.5074724,11.3617506 L11.5074724,11.3617506 Z" id="λ" fill="#FFFFFF"></path>
                    </g>
                </g>
                <text id="API-Gateway" sketch:type="MSTextLayer" font-family="Helvetica Neue" font-size="11.503725" font-weight="260" fill="#7D7D7D">
                    <tspan x="38.7240212" y="24.5953113">API Gateway</tspan>
                </text>
                <text id="API-Gateway-Resource" sketch:type="MSTextLayer" font-family="Helvetica Neue" font-size="11.503725" font-weight="260" fill="#7D7D7D">
                    <tspan x="38.7240212" y="48.6485544">API Gateway Resource</tspan>
                </text>
                <text id="Lambda" sketch:type="MSTextLayer" font-family="Helvetica Neue" font-size="11.503725" font-weight="260" fill="#7D7D7D">
                    <tspan x="38.7240212" y="73.7475907">Lambda</tspan>
                </text>
            </g>
            <text id="GET,-POST" sketch:type="MSTextLayer" transform="translate(228.355904, 77.453041) rotate(-353.000000) translate(-228.355904, -77.453041) " font-family="Helvetica Neue" font-size="7.08045977" font-weight="260" fill="#C2C2C2">
                <tspan x="185.444284" y="78.182874">GET, POST</tspan>
            </text>
            <text id="GET" sketch:type="MSTextLayer" transform="translate(209.841803, 187.630099) rotate(-28.000000) translate(-209.841803, -187.630099) " font-family="Helvetica Neue" font-size="7.08045977" font-weight="260" fill="#C2C2C2">
                <tspan x="166.871714" y="188.449818">GET</tspan>
            </text>
            <text id="GET" sketch:type="MSTextLayer" transform="translate(257.103320, 219.767997) rotate(-2.000000) translate(-257.103320, -219.767997) " font-family="Helvetica Neue" font-size="7.08045977" font-weight="260" fill="#C2C2C2">
                <tspan x="214.192829" y="220.493732">GET</tspan>
            </text>
            <text id="POST" sketch:type="MSTextLayer" transform="translate(270.324499, 130.408974) rotate(-334.000000) translate(-270.324499, -130.408974) " font-family="Helvetica Neue" font-size="7.08045977" font-weight="260" fill="#C2C2C2">
                <tspan x="227.375533" y="131.199112">POST</tspan>
            </text>
            <text id="GET" sketch:type="MSTextLayer" transform="translate(244.236083, 165.178100) rotate(-316.000000) translate(-244.236083, -165.178100) " font-family="Helvetica Neue" font-size="7.08045977" font-weight="260" fill="#C2C2C2">
                <tspan x="198.257944" y="169.065523">GET</tspan>
            </text>
        </g>
    </g>
</svg>