<?xml version="1.0" encoding="UTF-8" standalone="no"?>
<svg width="731px" height="201px" viewBox="0 0 731 201" version="1.1" xmlns="http://www.w3.org/2000/svg" xmlns:xlink="http://www.w3.org/1999/xlink" xmlns:sketch="http://www.bohemiancoding.com/sketch/ns">
    <!-- Generator: Sketch 3.4.2 (15855) - http://www.bohemiancoding.com/sketch -->
    <title>telegram</title>
    <desc>Created with Sketch.</desc>
    <defs></defs>
    <g id="Page-1" stroke="none" stroke-width="1" fill="none" fill-rule="evenodd" sketch:type="MSPage">
        <g id="telegram" sketch:type="MSArtboardGroup">
            <g id="Oval-1-+-λ-+-A" sketch:type="MSLayerGroup" transform="translate(327.000000, 65.000000)">
                <g id="Oval-1-+-λ" fill="#DDCF17" sketch:type="MSShapeGroup">
                    <ellipse id="Oval-1" cx="44.151248" cy="44.840299" rx="44.151248" ry="44.840299"></ellipse>
                </g>
                <text id="A" sketch:type="MSTextLayer" font-family="Helvetica Neue" font-size="63.3871686" font-weight="bold" fill="#FFFFFF">
                    <tspan x="22.4496222" y="64.6823511">A</tspan>
                </text>
            </g>
            <g id="Oval-1-+-λ-+-js" sketch:type="MSLayerGroup" transform="translate(107.000000, 65.000000)">
                <g id="Oval-1-+-λ" sketch:type="MSShapeGroup">
                    <ellipse id="Oval-1" fill="#3E4349" cx="44.151248" cy="44.840299" rx="44.151248" ry="44.840299"></ellipse>
                    <path d="M60.8017604,61.0154613 C61.1235,61.0154613 61.4351804,60.9950391 61.7368112,60.954194 C62.038442,60.9133489 62.3702309,60.8316599 62.7321879,60.7091246 L62.7321879,66.2844524 C61.9278391,66.7337485 61.1134482,67.0605044 60.2889907,67.2647298 C59.4645332,67.4689553 58.6702507,67.5710665 57.9061193,67.5710665 C56.0158997,67.5710665 54.5580394,67.1830439 53.5324947,66.4069871 C52.5069501,65.6309303 51.7729928,64.5281292 51.330601,63.0985508 L46.2029032,46.5563695 L46.0219256,46.5563695 L38.9638004,66.7133238 L29.7942702,66.7133238 L42.2817225,37.4275361 L39.8083624,31.423337 C39.406188,30.4838998 38.8733149,29.8814437 38.2097272,29.6159505 C37.5461395,29.3504574 36.751857,29.2177128 35.8268559,29.2177128 C34.8616373,29.2177128 33.8763249,29.3606685 32.8708889,29.6465842 L32.8708889,23.1522463 C33.79589,22.8663307 34.7309314,22.6825305 35.6760412,22.6008403 C36.621151,22.5191501 37.5159756,22.4783056 38.3605418,22.4783056 C39.7681522,22.4783056 40.9746573,22.6314724 41.9800932,22.9378107 C42.9855292,23.2441489 43.8702996,23.7342827 44.6344309,24.4082268 C45.3985622,25.0821709 46.0822485,25.9501161 46.68551,27.0120887 C47.2887716,28.0740612 47.8719157,29.3810846 48.4349599,30.9331983 L59.1126365,59.4837779 C59.3539411,60.1372994 59.6052963,60.5559554 59.8667097,60.7397583 C60.128123,60.9235613 60.4398035,61.0154613 60.8017604,61.0154613 L60.8017604,61.0154613 Z" id="λ" fill="#FFFFFF"></path>
                </g>
                <text id="js" sketch:type="MSTextLayer" font-family="Helvetica Neue" font-size="17.1673582" font-weight="bold" fill="#FFFFFF">
                    <tspan x="62.0666026" y="49.1882135">js</tspan>
                </text>
            </g>
            <path d="M295.5,109.5 L323.5,109.5" id="Line" stroke="#979797" stroke-linecap="square" stroke-dasharray="3,3" sketch:type="MSShapeGroup"></path>
            <g id="Group" sketch:type="MSLayerGroup" transform="translate(537.000000, 54.000000)">
                <rect id="Rectangle-1" fill="#F8F8F8" sketch:type="MSShapeGroup" x="0" y="0" width="170.595012" height="113.984006" rx="8"></rect>
                <g id="Oval-1-+-λ-+-A" transform="translate(15.698927, 35.549518)">
                    <g id="Oval-1-+-λ" fill="#DDCF17" sketch:type="MSShapeGroup">
                        <ellipse id="Oval-1" cx="8.35616051" cy="8.34975732" rx="8.35616051" ry="8.34975732"></ellipse>
                    </g>
                    <text id="A" sketch:type="MSTextLayer" font-family="Helvetica Neue" font-size="11.9875994" font-weight="bold" fill="#FFFFFF">
                        <tspan x="4.24886396" y="12.4994833">A</tspan>
                    </text>
                </g>
                <g id="Oval-1-+-λ-+-A" transform="translate(15.698927, 60.648554)">
                    <g id="Oval-1-+-λ" fill="#F6A623" sketch:type="MSShapeGroup">
                        <ellipse id="Oval-1" cx="8.37276133" cy="8.33049372" rx="8.37276133" ry="8.09646331"></ellipse>
                    </g>
                    <text id="R" sketch:type="MSTextLayer" font-family="Helvetica Neue" font-size="9.71575598" font-weight="bold" fill="#FFFFFF">
                        <tspan x="5.0236568" y="11.1590569">R</tspan>
                    </text>
                </g>
                <g id="Oval-1-+-λ-+-py" transform="translate(15.698927, 85.747591)" sketch:type="MSShapeGroup">
                    <g id="Oval-1-+-λ">
                        <ellipse id="Oval-1" fill="#3E4349" cx="8.35616051" cy="8.34975732" rx="8.35616051" ry="8.34975732"></ellipse>
                        <path d="M11.5074724,11.3617506 C11.5683655,11.3617506 11.6273549,11.3579478 11.6844422,11.350342 C11.7415295,11.3427362 11.8043245,11.3275248 11.8728293,11.3047073 L11.8728293,12.3428948 C11.7205965,12.4265586 11.5664631,12.4874042 11.4104245,12.5254332 C11.2543859,12.5634622 11.1040583,12.5824765 10.9594371,12.5824765 C10.6016901,12.5824765 10.3257723,12.5102224 10.1316755,12.3657121 C9.93757871,12.2212017 9.79866838,12.015848 9.71494035,11.7496448 L8.74446119,8.66930854 L8.71020899,8.66930854 L7.37437297,12.4227553 L5.6389279,12.4227553 L8.00233007,6.96941926 L7.5342166,5.85137128 C7.45810021,5.67643773 7.3572475,5.56425377 7.23165545,5.51481603 C7.1060634,5.46537828 6.95573578,5.44065978 6.78066808,5.44065978 C6.59798874,5.44065978 6.41150637,5.46727971 6.22121539,5.52052035 L6.22121539,4.31120315 C6.39628309,4.2579625 6.57325105,4.22373689 6.75212458,4.20852527 C6.9309981,4.19331366 7.10035453,4.18570797 7.26019896,4.18570797 C7.52660633,4.18570797 7.75495208,4.21422932 7.94524306,4.27127286 C8.13553405,4.32831641 8.3029876,4.41958472 8.44760874,4.54508053 C8.59222989,4.67057634 8.72162582,4.83219731 8.83580041,5.02994828 C8.949975,5.22769925 9.06034211,5.47108141 9.16690506,5.76010206 L11.1877852,11.0765343 C11.233455,11.1982272 11.281027,11.2761855 11.3305027,11.3104117 C11.3799784,11.3446378 11.4389677,11.3617506 11.5074724,11.3617506 L11.5074724,11.3617506 Z" id="λ" fill="#FFFFFF"></path>
                    </g>
                </g>
                <text id="API-Gateway" sketch:type="MSTextLayer" font-family="Helvetica Neue" font-size="11.503725" font-weight="260" fill="#7D7D7D">
                    <tspan x="38.7240212" y="47.5953113">API Gateway</tspan>
                </text>
                <text id="API-Gateway-Resource" sketch:type="MSTextLayer" font-family="Helvetica Neue" font-size="11.503725" font-weight="260" fill="#7D7D7D">
                    <tspan x="38.7240212" y="71.6485544">API Gateway Resource</tspan>
                </text>
                <text id="Lambda" sketch:type="MSTextLayer" font-family="Helvetica Neue" font-size="11.503725" font-weight="260" fill="#7D7D7D">
                    <tspan x="38.7240212" y="96.7475907">Lambda</tspan>
                </text>
                <g id="Oval-1-+-λ-+-A" transform="translate(16.000000, 11.496275)">
                    <g id="Oval-1-+-λ" fill="#4A90E2" sketch:type="MSShapeGroup">
                        <path d="M1.46480838,13.0734797 C2.97111439,15.2634402 5.49580226,16.6995146 8.35616051,16.6995146 C12.9711405,16.6995146 16.712321,12.961201 16.712321,8.34975732 C16.712321,3.73831369 12.9711405,0 8.35616051,0 C3.74118049,0 0,3.73831369 0,8.34975732 C0,10.1030346 0.540799196,11.7300982 1.46480838,13.0734797 Z" id="Oval-1"></path>
                    </g>
                    <text id="T" sketch:type="MSTextLayer" font-family="Helvetica Neue" font-size="11.9875994" font-weight="bold" fill="#FFFFFF">
                        <tspan x="4" y="13">T</tspan>
                    </text>
                </g>
                <text id="Telegram-API" sketch:type="MSTextLayer" font-family="Helvetica Neue" font-size="11.503725" font-weight="260" fill="#7D7D7D">
                    <tspan x="39" y="23.496275">Telegram API</tspan>
                </text>
            </g>
            <text id="POST" sketch:type="MSTextLayer" font-family="Helvetica Neue" font-size="7.08045977" font-weight="260" fill="#C2C2C2">
                <tspan x="211" y="104">POST</tspan>
            </text>
            <path d="M198.660283,109.604119 L241.500126,109.604119" id="Line" stroke="#979797" stroke-linecap="square" stroke-dasharray="3,3" sketch:type="MSShapeGroup"></path>
            <g id="Oval-1-+-λ-+-A" sketch:type="MSLayerGroup" transform="translate(248.000000, 89.000000)">
                <g id="Oval-1-+-λ" fill="#F6A623" sketch:type="MSShapeGroup">
                    <ellipse id="Oval-1" cx="19.8084902" cy="20.6991389" rx="19.8084902" ry="20.1176334"></ellipse>
                </g>
                <text id="R" sketch:type="MSTextLayer" font-family="Helvetica Neue" font-size="23.7701882" font-weight="bold" fill="#FFFFFF">
                    <tspan x="11.8850941" y="28.3647022">R</tspan>
                </text>
            </g>
            <g id="Oval-1-+-λ-+-A" sketch:type="MSLayerGroup" transform="translate(17.000000, 82.000000)">
                <g id="Oval-1-+-λ" fill="#4990E2" sketch:type="MSShapeGroup">
                    <ellipse id="Oval-1" cx="27.9444839" cy="27.9444839" rx="27.9444839" ry="27.9444839"></ellipse>
                </g>
                <text id="T" sketch:type="MSTextLayer" font-family="Helvetica Neue" font-size="40.119403" font-weight="bold" fill="#FFFFFF">
                    <tspan x="16" y="44">T</tspan>
                </text>
            </g>
            <g id="Oval-1-+-λ-+-A" sketch:type="MSLayerGroup" transform="translate(451.000000, 82.000000)">
                <g id="Oval-1-+-λ" fill="#4990E2" sketch:type="MSShapeGroup">
                    <ellipse id="Oval-1" cx="27.9444839" cy="27.9444839" rx="27.9444839" ry="27.9444839"></ellipse>
                </g>
                <text id="T" sketch:type="MSTextLayer" font-family="Helvetica Neue" font-size="40.119403" font-weight="bold" fill="#FFFFFF">
                    <tspan x="16" y="44">T</tspan>
                </text>
            </g>
            <path d="M76.4260272,109.5 L103.5,109.5" id="Line" stroke="#979797" stroke-linecap="square" stroke-dasharray="3,3" sketch:type="MSShapeGroup"></path>
            <path d="M418.660283,109.670588 L439.338688,109.670588" id="Line" stroke="#979797" stroke-linecap="square" stroke-dasharray="3,3" sketch:type="MSShapeGroup"></path>
        </g>
    </g>
</svg>