<?xml version="1.0" encoding="UTF-8" standalone="no"?>
<svg width="467px" height="194px" viewBox="0 0 467 194" version="1.1" xmlns="http://www.w3.org/2000/svg" xmlns:xlink="http://www.w3.org/1999/xlink" xmlns:sketch="http://www.bohemiancoding.com/sketch/ns">
    <!-- Generator: Sketch 3.4.2 (15855) - http://www.bohemiancoding.com/sketch -->
    <title>apigateway</title>
    <desc>Created with Sketch.</desc>
    <defs></defs>
    <g id="Page-1" stroke="none" stroke-width="1" fill="none" fill-rule="evenodd" sketch:type="MSPage">
        <g id="apigateway" sketch:type="MSArtboardGroup">
            <g id="Oval-1-+-λ-+-A" sketch:type="MSLayerGroup" transform="translate(241.000000, 61.000000)">
                <g id="Oval-1-+-λ" fill="#DDCF17" sketch:type="MSShapeGroup">
                    <circle id="Oval-1" cx="33.433579" cy="33.433579" r="33.433579"></circle>
                </g>
                <text id="A" sketch:type="MSTextLayer" font-family="Helvetica Neue" font-size="48" font-weight="bold" fill="#FFFFFF">
                    <tspan x="17" y="49">A</tspan>
                </text>
            </g>
            <path d="M87.5,49.5 L174.5,61.5" id="Line" stroke="#979797" stroke-linecap="square" stroke-dasharray="3,3" sketch:type="MSShapeGroup"></path>
            <g id="Oval-1-+-λ-+-py" sketch:type="MSLayerGroup" transform="translate(12.000000, 16.000000)">
                <g id="Oval-1-+-λ" sketch:type="MSShapeGroup">
                    <circle id="Oval-1" fill="#3E4349" cx="33.433579" cy="33.433579" r="33.433579"></circle>
                    <path d="M46.042197,45.4940152 C46.2858346,45.4940152 46.5218549,45.478788 46.7502652,45.4483333 C46.9786754,45.4178786 47.2299229,45.3569702 47.5040152,45.2656061 L47.5040152,49.4226515 C46.8949212,49.7576532 46.2782228,50.0012871 45.6539015,50.1535606 C45.0295802,50.3058341 44.428109,50.3819697 43.8494697,50.3819697 C42.4180989,50.3819697 41.3141327,50.0926544 40.5375379,49.5140152 C39.7609431,48.9353759 39.2051532,48.1131114 38.8701515,47.047197 L34.987197,34.7131061 L34.8501515,34.7131061 L29.5053788,49.7424242 L22.5617424,49.7424242 L32.0178788,27.9065152 L30.1449242,23.429697 C29.8403773,22.7292389 29.4368586,22.2800389 28.9343561,22.0820833 C28.4318535,21.8841278 27.8303823,21.7851515 27.1299242,21.7851515 C26.3990115,21.7851515 25.6528826,21.8917414 24.8915152,22.1049242 L24.8915152,17.2626515 C25.5919732,17.0494686 26.3000343,16.9124245 27.0157197,16.8515152 C27.7314051,16.7906058 28.409012,16.7601515 29.0485606,16.7601515 C30.114475,16.7601515 31.0281023,16.8743549 31.7894697,17.1027652 C32.5508371,17.3311754 33.2208304,17.6966263 33.7994697,18.1991288 C34.378109,18.7016313 34.895831,19.3487839 35.3526515,20.1406061 C35.809472,20.9324282 36.2510585,21.9069639 36.6774242,23.0642424 L44.7631061,44.3519697 C44.9458342,44.8392449 45.1361733,45.1514008 45.3341288,45.288447 C45.5320843,45.4254931 45.7681047,45.4940152 46.042197,45.4940152 L46.042197,45.4940152 Z" id="λ" fill="#FFFFFF"></path>
                </g>
                <text id="py" sketch:type="MSTextLayer" font-family="Helvetica Neue" font-size="13" font-weight="bold" fill="#FFFFFF">
                    <tspan x="45" y="37">py</tspan>
                </text>
            </g>
            <g id="Oval-1-+-λ-+-js" sketch:type="MSLayerGroup" transform="translate(12.000000, 111.000000)">
                <g id="Oval-1-+-λ" sketch:type="MSShapeGroup">
                    <circle id="Oval-1" fill="#3E4349" cx="33.433579" cy="33.433579" r="33.433579"></circle>
                    <path d="M46.042197,45.4940152 C46.2858346,45.4940152 46.5218549,45.478788 46.7502652,45.4483333 C46.9786754,45.4178786 47.2299229,45.3569702 47.5040152,45.2656061 L47.5040152,49.4226515 C46.8949212,49.7576532 46.2782228,50.0012871 45.6539015,50.1535606 C45.0295802,50.3058341 44.428109,50.3819697 43.8494697,50.3819697 C42.4180989,50.3819697 41.3141327,50.0926544 40.5375379,49.5140152 C39.7609431,48.9353759 39.2051532,48.1131114 38.8701515,47.047197 L34.987197,34.7131061 L34.8501515,34.7131061 L29.5053788,49.7424242 L22.5617424,49.7424242 L32.0178788,27.9065152 L30.1449242,23.429697 C29.8403773,22.7292389 29.4368586,22.2800389 28.9343561,22.0820833 C28.4318535,21.8841278 27.8303823,21.7851515 27.1299242,21.7851515 C26.3990115,21.7851515 25.6528826,21.8917414 24.8915152,22.1049242 L24.8915152,17.2626515 C25.5919732,17.0494686 26.3000343,16.9124245 27.0157197,16.8515152 C27.7314051,16.7906058 28.409012,16.7601515 29.0485606,16.7601515 C30.114475,16.7601515 31.0281023,16.8743549 31.7894697,17.1027652 C32.5508371,17.3311754 33.2208304,17.6966263 33.7994697,18.1991288 C34.378109,18.7016313 34.895831,19.3487839 35.3526515,20.1406061 C35.809472,20.9324282 36.2510585,21.9069639 36.6774242,23.0642424 L44.7631061,44.3519697 C44.9458342,44.8392449 45.1361733,45.1514008 45.3341288,45.288447 C45.5320843,45.4254931 45.7681047,45.4940152 46.042197,45.4940152 L46.042197,45.4940152 Z" id="λ" fill="#FFFFFF"></path>
                </g>
                <text id="js" sketch:type="MSTextLayer" font-family="Helvetica Neue" font-size="13" font-weight="bold" fill="#FFFFFF">
                    <tspan x="47" y="37">js</tspan>
                </text>
            </g>
            <path d="M216.5,131.5 L240.5,119.5" id="Line" stroke="#979797" stroke-linecap="square" stroke-dasharray="3,3" sketch:type="MSShapeGroup"></path>
            <g id="Oval-1-+-λ-+-A" sketch:type="MSLayerGroup" transform="translate(180.000000, 45.000000)">
                <g id="Oval-1-+-λ" fill="#F6A623" sketch:type="MSShapeGroup">
                    <circle id="Oval-1" cx="15" cy="15.433579" r="15"></circle>
                </g>
                <text id="R" sketch:type="MSTextLayer" font-family="Helvetica Neue" font-size="18" font-weight="bold" fill="#FFFFFF">
                    <tspan x="9" y="22">R</tspan>
                </text>
            </g>
            <g id="Oval-1-+-λ-+-A" sketch:type="MSLayerGroup" transform="translate(180.000000, 82.000000)">
                <g id="Oval-1-+-λ" fill="#F6A623" sketch:type="MSShapeGroup">
                    <circle id="Oval-1" cx="15" cy="15.433579" r="15"></circle>
                </g>
                <text id="R" sketch:type="MSTextLayer" font-family="Helvetica Neue" font-size="18" font-weight="bold" fill="#FFFFFF">
                    <tspan x="9" y="22">R</tspan>
                </text>
            </g>
            <g id="Oval-1-+-λ-+-A" sketch:type="MSLayerGroup" transform="translate(180.000000, 119.000000)">
                <g id="Oval-1-+-λ" fill="#F6A623" sketch:type="MSShapeGroup">
                    <circle id="Oval-1" cx="15" cy="15.433579" r="15"></circle>
                </g>
                <text id="R" sketch:type="MSTextLayer" font-family="Helvetica Neue" font-size="18" font-weight="bold" fill="#FFFFFF">
                    <tspan x="9" y="22">R</tspan>
                </text>
            </g>
            <path d="M216.5,97.5 L234.5,97.5" id="Line" stroke="#979797" stroke-linecap="square" stroke-dasharray="3,3" sketch:type="MSShapeGroup"></path>
            <path d="M214.5,64.5 L238.5,78.5" id="Line" stroke="#979797" stroke-linecap="square" stroke-dasharray="3,3" sketch:type="MSShapeGroup"></path>
            <path d="M87.5,49.5 L174.5,94.5" id="Line" stroke="#979797" stroke-linecap="square" stroke-dasharray="3,3" sketch:type="MSShapeGroup"></path>
            <path d="M87.5,49.5 L174.5,136.5" id="Line" stroke="#979797" stroke-linecap="square" stroke-dasharray="3,3" sketch:type="MSShapeGroup"></path>
            <path d="M87.5,145.5 L175.5,142.5" id="Line" stroke="#979797" stroke-linecap="square" stroke-dasharray="3,3" sketch:type="MSShapeGroup"></path>
            <path d="M87.5,145.5 L173.5,101.5" id="Line" stroke="#979797" stroke-linecap="square" stroke-dasharray="3,3" sketch:type="MSShapeGroup"></path>
            <g id="Group" sketch:type="MSLayerGroup" transform="translate(331.000000, 70.000000)">
                <rect id="Rectangle-1" fill="#F8F8F8" sketch:type="MSShapeGroup" x="0" y="0" width="105" height="56" rx="8"></rect>
                <g id="Oval-1-+-λ-+-A" transform="translate(9.662577, 7.724138)">
                    <g id="Oval-1-+-λ" fill="#DDCF17" sketch:type="MSShapeGroup">
                        <ellipse id="Oval-1" cx="5.14315655" cy="5.13921543" rx="5.14315655" ry="5.13921543"></ellipse>
                    </g>
                    <text id="A" sketch:type="MSTextLayer" font-family="Helvetica Neue" font-size="7.37828101" font-weight="bold" fill="#FFFFFF">
                        <tspan x="2.61514513" y="7.30742838">A</tspan>
                    </text>
                </g>
                <g id="Oval-1-+-λ-+-A" transform="translate(9.662577, 23.172414)">
                    <g id="Oval-1-+-λ" fill="#F6A623" sketch:type="MSShapeGroup">
                        <ellipse id="Oval-1" cx="5.15337423" cy="5.12735882" rx="5.15337423" ry="4.98331479"></ellipse>
                    </g>
                    <text id="R" sketch:type="MSTextLayer" font-family="Helvetica Neue" font-size="5.97997775" font-weight="bold" fill="#FFFFFF">
                        <tspan x="3.09202454" y="7.32888395">R</tspan>
                    </text>
                </g>
                <g id="Oval-1-+-λ-+-py" transform="translate(9.662577, 38.620690)" sketch:type="MSShapeGroup">
                    <g id="Oval-1-+-λ">
                        <ellipse id="Oval-1" fill="#3E4349" cx="5.14315655" cy="5.13921543" rx="5.14315655" ry="5.13921543"></ellipse>
                        <path d="M7.08276631,6.99307558 C7.12024559,6.99307558 7.15655309,6.99073496 7.19168991,6.98605364 C7.22682672,6.98137232 7.26547664,6.97200982 7.30764083,6.95796587 L7.30764083,7.59696273 C7.21394264,7.64845724 7.11907466,7.68590723 7.02303402,7.70931383 C6.92699338,7.73272042 6.83446782,7.74442355 6.74545455,7.74442355 C6.52526382,7.74442355 6.35543841,7.69995168 6.23597323,7.61100662 C6.11650805,7.52206155 6.03100974,7.39566783 5.97947574,7.23182166 L5.38215282,5.3358969 L5.36107083,5.3358969 L4.5388734,7.64611634 L3.47071946,7.64611634 L4.92537646,4.28962731 L4.637256,3.60147684 C4.5904069,3.4938065 4.52833279,3.42475808 4.45103179,3.3943295 C4.37373079,3.36390093 4.28120522,3.34868687 4.17345231,3.34868687 C4.0610145,3.34868687 3.94623595,3.36507124 3.82911322,3.39784047 L3.82911322,2.65351445 C3.93686613,2.62074522 4.04578863,2.5996796 4.15588399,2.59031696 C4.26597936,2.58095432 4.37021702,2.57627308 4.46860011,2.57627308 C4.63257193,2.57627308 4.77311709,2.59382776 4.89023982,2.62893765 C5.00736255,2.66404755 5.110429,2.72022253 5.19944228,2.7974643 C5.28845555,2.87470606 5.36809781,2.9741826 5.43837144,3.0958969 C5.50864508,3.2176112 5.57657524,3.36741116 5.64216397,3.54530129 L6.88600112,6.81752699 C6.91411057,6.8924281 6.94339081,6.9404109 6.97384272,6.96147684 C7.00429463,6.98254277 7.04060213,6.99307558 7.08276631,6.99307558 L7.08276631,6.99307558 Z" id="λ" fill="#FFFFFF"></path>
                    </g>
                </g>
                <text id="API-Gateway" sketch:type="MSTextLayer" font-family="Helvetica Neue" font-size="7.08045977" font-weight="260" fill="#7D7D7D">
                    <tspan x="23.8343558" y="15.3678161">API Gateway</tspan>
                </text>
                <text id="API-Gateway-Resource" sketch:type="MSTextLayer" font-family="Helvetica Neue" font-size="7.08045977" font-weight="260" fill="#7D7D7D">
                    <tspan x="23.8343558" y="30.1724138">API Gateway Resource</tspan>
                </text>
                <text id="Lambda" sketch:type="MSTextLayer" font-family="Helvetica Neue" font-size="7.08045977" font-weight="260" fill="#7D7D7D">
                    <tspan x="23.8343558" y="45.6206897">Lambda</tspan>
                </text>
            </g>
            <text id="GET,-POST" sketch:type="MSTextLayer" transform="translate(139.691509, 49.500190) rotate(-353.000000) translate(-139.691509, -49.500190) " font-family="Helvetica Neue" font-size="7.08045977" font-weight="260" fill="#C2C2C2">
                <tspan x="113.280466" y="52.6381214">GET, POST</tspan>
            </text>
            <text id="GET" sketch:type="MSTextLayer" transform="translate(128.132698, 116.809238) rotate(-28.000000) translate(-128.132698, -116.809238) " font-family="Helvetica Neue" font-size="7.08045977" font-weight="260" fill="#C2C2C2">
                <tspan x="101.721655" y="119.947169">GET</tspan>
            </text>
            <text id="GET" sketch:type="MSTextLayer" transform="translate(157.529738, 136.781448) rotate(-2.000000) translate(-157.529738, -136.781448) " font-family="Helvetica Neue" font-size="7.08045977" font-weight="260" fill="#C2C2C2">
                <tspan x="131.118695" y="139.919379">GET</tspan>
            </text>
            <text id="POST" sketch:type="MSTextLayer" transform="translate(165.431108, 82.049044) rotate(-334.000000) translate(-165.431108, -82.049044) " font-family="Helvetica Neue" font-size="7.08045977" font-weight="260" fill="#C2C2C2">
                <tspan x="139.020065" y="85.1869748">POST</tspan>
            </text>
            <text id="GET" sketch:type="MSTextLayer" transform="translate(149.681333, 103.124792) rotate(-316.000000) translate(-149.681333, -103.124792) " font-family="Helvetica Neue" font-size="7.08045977" font-weight="260" fill="#C2C2C2">
                <tspan x="123.27029" y="106.262723">GET</tspan>
            </text>
        </g>
    </g>
</svg>